<svg version="1.1" id="Layer_1" xmlns="http://www.w3.org/2000/svg" xmlns:xlink="http://www.w3.org/1999/xlink" x="0px" y="0px"
	 width="100%" viewBox="0 0 500 500" enable-background="new 0 0 500 500" xml:space="preserve">
<path fill="#000000" opacity="1.000000" stroke="none" 
	d="
M328.000000,501.000000 
	C218.666687,501.000000 109.833382,501.000000 1.000058,501.000000 
	C1.000039,334.333405 1.000039,167.666794 1.000019,1.000148 
	C167.666565,1.000099 334.333130,1.000099 500.999756,1.000049 
	C500.999847,167.666519 500.999847,334.333038 500.999939,500.999786 
	C443.500000,501.000000 386.000000,501.000000 328.000000,501.000000 
M275.075684,330.050934 
	C283.663788,330.036469 292.251862,330.022034 301.028076,330.758118 
	C307.641235,349.327026 314.205902,367.913605 320.964813,386.429291 
	C321.474304,387.824951 323.357452,389.682739 324.619202,389.696045 
	C344.267151,389.902924 363.917908,389.840790 383.560120,389.840790 
	C418.193146,291.588348 452.720642,193.635178 487.399994,95.251251 
	C467.282745,95.251251 447.982483,95.251251 428.338318,95.251251 
	C403.319702,172.081085 378.289276,248.947128 353.258881,325.813171 
	C348.901642,315.438904 345.883118,305.264496 342.600647,295.175934 
	C332.411316,263.859619 322.143158,232.568863 311.860596,201.282974 
	C307.631531,188.415512 303.219879,175.607956 299.011475,162.733856 
	C291.958618,141.158127 284.919617,119.576935 278.093170,97.929176 
	C277.057922,94.646210 274.937042,95.068893 272.682281,95.066483 
	C257.350281,95.050117 242.018265,95.066757 226.686249,95.072380 
	C224.081635,95.073334 221.477020,95.072517 218.073318,95.072517 
	C239.986252,157.294510 261.666626,218.856110 283.562500,281.029694 
	C274.482727,281.029694 266.333191,281.144165 258.194916,280.893402 
	C257.104156,280.859833 255.600006,279.171936 255.093781,277.923187 
	C253.198318,273.247345 251.629883,268.438477 249.952927,263.674530 
	C239.275879,233.342957 228.595337,203.012604 217.930328,172.676804 
	C209.260345,148.015701 200.543427,123.370583 192.039917,98.652130 
	C191.021713,95.692345 189.592804,94.983070 186.729172,95.001465 
	C168.898209,95.115990 151.065857,95.127029 133.234909,95.019203 
	C130.347198,95.001740 128.967773,95.749725 127.953575,98.692612 
	C119.660652,122.756325 111.172989,146.753250 102.677254,170.746643 
	C96.526085,188.118607 90.199417,205.428558 84.080650,222.811798 
	C73.680252,252.359009 63.405998,281.950623 53.031681,311.507050 
	C46.811119,329.229431 40.455544,346.904480 34.251915,364.632751 
	C31.408072,372.759644 28.783995,380.963501 25.814919,389.868286 
	C28.324238,389.868286 30.115496,389.868164 31.906752,389.868286 
	C46.405479,389.869141 60.904205,389.870453 75.402931,389.870850 
	C84.425926,389.871063 84.418541,389.868011 87.164124,381.421204 
	C87.720192,379.710449 88.388077,378.036133 88.948845,376.326813 
	C94.120613,360.562347 99.280159,344.793884 104.250107,329.616425 
	C141.711121,329.616425 178.624634,329.616425 215.403900,329.616425 
	C222.259277,350.108582 228.904358,369.972168 235.471390,389.602417 
	C255.200638,389.602417 274.447845,389.602417 294.356873,389.602417 
	C290.115204,377.460236 285.971985,365.814911 281.986267,354.115875 
	C279.266083,346.131378 276.765900,338.071960 275.075684,330.050934 
z"/>
<path fill="#FD3232" opacity="1.000000" stroke="none" 
	d="
M274.167358,330.046021 
	C276.765900,338.071960 279.266083,346.131378 281.986267,354.115875 
	C285.971985,365.814911 290.115204,377.460236 294.356873,389.602417 
	C274.447845,389.602417 255.200638,389.602417 235.471390,389.602417 
	C228.904358,369.972168 222.259277,350.108582 215.403900,329.616425 
	C178.624634,329.616425 141.711121,329.616425 104.250107,329.616425 
	C99.280159,344.793884 94.120613,360.562347 88.948845,376.326813 
	C88.388077,378.036133 87.720192,379.710449 87.164124,381.421204 
	C84.418541,389.868011 84.425926,389.871063 75.402931,389.870850 
	C60.904205,389.870453 46.405479,389.869141 31.906752,389.868286 
	C30.115496,389.868164 28.324238,389.868286 25.814919,389.868286 
	C28.783995,380.963501 31.408072,372.759644 34.251915,364.632751 
	C40.455544,346.904480 46.811119,329.229431 53.031681,311.507050 
	C63.405998,281.950623 73.680252,252.359009 84.080650,222.811798 
	C90.199417,205.428558 96.526085,188.118607 102.677254,170.746643 
	C111.172989,146.753250 119.660652,122.756325 127.953575,98.692612 
	C128.967773,95.749725 130.347198,95.001740 133.234909,95.019203 
	C151.065857,95.127029 168.898209,95.115990 186.729172,95.001465 
	C189.592804,94.983070 191.021713,95.692345 192.039917,98.652130 
	C200.543427,123.370583 209.260345,148.015701 217.930328,172.676804 
	C228.595337,203.012604 239.275879,233.342957 249.952927,263.674530 
	C251.629883,268.438477 253.198318,273.247345 255.093781,277.923187 
	C255.600006,279.171936 257.104156,280.859833 258.194916,280.893402 
	C266.333191,281.144165 274.482727,281.029694 283.562500,281.029694 
	C261.666626,218.856110 239.986252,157.294510 218.073318,95.072517 
	C221.477020,95.072517 224.081635,95.073334 226.686249,95.072380 
	C242.018265,95.066757 257.350281,95.050117 272.682281,95.066483 
	C274.937042,95.068893 277.057922,94.646210 278.093170,97.929176 
	C284.919617,119.576935 291.958618,141.158127 299.011475,162.733856 
	C303.219879,175.607956 307.631531,188.415512 311.860596,201.282974 
	C322.143158,232.568863 332.411316,263.859619 342.600647,295.175934 
	C345.883118,305.264496 348.901642,315.438904 353.258881,325.813171 
	C378.289276,248.947128 403.319702,172.081085 428.338318,95.251251 
	C447.982483,95.251251 467.282745,95.251251 487.399994,95.251251 
	C452.720642,193.635178 418.193146,291.588348 383.560120,389.840790 
	C363.917908,389.840790 344.267151,389.902924 324.619202,389.696045 
	C323.357452,389.682739 321.474304,387.824951 320.964813,386.429291 
	C314.205902,367.913605 307.641235,349.327026 300.601624,330.163727 
	C291.505920,329.728241 282.836639,329.887115 274.167358,330.046021 
M153.499847,280.132263 
	C168.809341,280.132263 184.118820,280.132263 199.827637,280.132263 
	C186.639389,239.608185 173.587067,199.501740 160.047836,157.899139 
	C146.612701,199.273560 133.615952,239.297958 120.357681,280.127686 
	C131.630020,280.127686 142.064926,280.127686 153.499847,280.132263 
z"/>
<path fill="#D35656" opacity="1.000000" stroke="none" 
	d="
M274.621521,330.048462 
	C282.836639,329.887115 291.505920,329.728241 300.507568,329.788452 
	C292.251862,330.022034 283.663788,330.036469 274.621521,330.048462 
z"/>
<path fill="#000000" opacity="1.000000" stroke="none" 
	d="
M152.999847,280.129974 
	C142.064926,280.127686 131.630020,280.127686 120.357681,280.127686 
	C133.615952,239.297958 146.612701,199.273560 160.047836,157.899139 
	C173.587067,199.501740 186.639389,239.608185 199.827637,280.132263 
	C184.118820,280.132263 168.809341,280.132263 152.999847,280.129974 
z"/>
</svg>